<svg xmlns="http://www.w3.org/2000/svg" viewBox="-0.5 -0.5 16 16" id="Threads--Streamline-Font-Awesome.svg" height="16" width="16"><desc>Threads Streamline Icon: https://streamlinehq.com</desc><!--! Font Awesome Free 6.5.2 by @fontawesome - https://fontawesome.com License - https://fontawesome.com/license/free (Icons: CC BY 4.0, Fonts: SIL OFL 1.1, Code: MIT License) Copyright 2024 Fonticons, Inc.--><path d="M10.820588169642857 6.876910714285714c0.0673627232142857 0.027555803571428568 0.1285982142857143 0.05817522321428571 0.1928973214285714 0.08573102678571429 0.8940636160714286 0.4317254464285714 1.5493024553571428 1.0777767857142857 1.8922332589285713 1.8799854910714284 0.48070982142857144 1.117580357142857 0.526640625 2.933263392857143 -0.9277466517857142 4.384587053571429 -1.1083928571428572 1.1083928571428572 -2.458674107142857 1.6074776785714284 -4.366215401785714 1.6227857142857143h-0.009184151785714285c-2.1494263392857142 -0.015308035714285713 -3.799771205357143 -0.7379095982142857 -4.911227678571428 -2.1494263392857142 -0.9889821428571429 -1.2553627232142857 -1.4972511160714286 -3.0036863839285712 -1.5156194196428572 -5.1929196428571425v-0.015308035714285713c0.015308035714285713 -2.1892332589285712 0.5235770089285714 -3.937556919642857 1.5125591517857142 -5.1929196428571425C3.7997410714285715 0.8879095982142856 5.453146205357143 0.1653080357142857 7.602572544642857 0.15000000000000002h0.009184151785714285c2.152489955357143 0.015308035714285713 3.824266741071429 0.734845982142857 4.969402901785714 2.1402421875 0.5633839285714285 0.6950424107142857 0.9797979910714286 1.5309308035714284 1.2431149553571428 2.501541294642857l-1.2369910714285715 0.3306796875c-0.21739285714285714 -0.7899609375 -0.5450122767857143 -1.4635714285714287 -0.9859185267857143 -2.0024564732142855 -0.8940636160714286 -1.0961484375000001 -2.235160714285714 -1.6595290178571427 -3.995732142857143 -1.6717767857142856 -1.7452600446428572 0.015308035714285713 -3.064921875 0.5756283482142857 -3.9253058035714283 1.6656529017857142 -0.8022087053571428 1.0196015625000001 -1.2186227678571429 2.4954174107142855 -1.2339308035714285 4.384587053571429 0.015311383928571428 1.889169642857143 0.4317220982142857 3.3649854910714283 1.2339308035714285 4.387647321428571 0.8573203125 1.0900245535714286 2.1800457589285713 1.6503448660714286 3.9253058035714283 1.6656529017857142 1.5737979910714286 -0.012247767857142858 2.6148314732142857 -0.3857946428571428 3.4813392857142857 -1.2523024553571427 0.9889821428571429 -0.9859185267857143 0.9706104910714286 -2.1984174107142858 0.6552388392857142 -2.9363236607142857 -0.18677343749999997 -0.4347857142857143 -0.5235803571428571 -0.7960848214285714 -0.976734375 -1.0685892857142856 -0.11329017857142856 0.8236406249999999 -0.3612991071428572 1.4788794642857142 -0.7562812499999999 1.9840848214285716 -0.5235770089285714 0.6674866071428571 -1.2676104910714285 1.0287857142857144 -2.2259732142857143 1.0808370535714285 -0.7225982142857144 0.03980357142857143 -1.417640625 -0.1347220982142857 -1.9565290178571428 -0.48989732142857145 -0.6368671875 -0.4225379464285714 -1.0104140625 -1.0655290178571428 -1.050220982142857 -1.8156830357142857 -0.07654352678571427 -1.4788794642857142 1.0930848214285713 -2.5413482142857142 2.9148950892857144 -2.6454508928571427 0.6460513392857143 -0.03674330357142857 1.252299107142857 -0.009184151785714285 1.8126227678571427 0.08573102678571429 -0.07348660714285714 -0.4531540178571429 -0.22351674107142858 -0.814453125 -0.44703348214285715 -1.0777734375 -0.3061841517857143 -0.3582388392857143 -0.7838370535714285 -0.5419486607142857 -1.4145803571428572 -0.5450122767857143h-0.021431919642857143c-0.5082689732142858 0 -1.194127232142857 0.14084598214285712 -1.6319732142857142 0.8052689732142857l-1.05328125 -0.7225982142857144c0.5878794642857142 -0.8910033482142857 1.5401183035714285 -1.380900669642857 2.688314732142857 -1.380900669642857h0.024495535714285716c1.9167254464285715 0.012247767857142858 3.058801339285714 1.2094352678571427 3.1751517857142857 3.297626116071428l-0.006123883928571429 0.006123883928571429Zm-4.776502232142857 2.1065625c0.03980357142857143 0.7685256696428571 0.8695680803571428 1.1267645089285714 1.6717767857142856 1.0808370535714285 0.7838337053571428 -0.0428671875 1.6717767857142856 -0.3490513392857143 1.821806919642857 -2.2412845982142855 -0.40416629464285714 -0.08879129464285714 -0.8511997767857142 -0.1347220982142857 -1.3288493303571427 -0.1347220982142857 -0.14696986607142856 0 -0.2939363839285714 0.0030636160714285713 -0.44090625 0.012247767857142858 -1.313541294642857 0.07348660714285714 -1.7513872767857144 0.7103537946428572 -1.720767857142857 1.2798582589285714l-0.003060267857142857 0.0030636160714285713Z" fill="#ffffff" stroke-width="1"></path></svg>